<?xml version="1.0" encoding="UTF-8" standalone="no"?>
<svg
   width="135"
   height="135"
   viewBox="0 0 10.408824 10.408824"
   version="1.1"
   id="svg5"
   sodipodi:docname="RealArcade.svg"
   xmlns:inkscape="http://www.inkscape.org/namespaces/inkscape"
   xmlns:sodipodi="http://sodipodi.sourceforge.net/DTD/sodipodi-0.dtd"
   xmlns="http://www.w3.org/2000/svg"
   xmlns:svg="http://www.w3.org/2000/svg">
  <defs
     id="defs5" />
  <sodipodi:namedview
     id="namedview5"
     pagecolor="#505050"
     bordercolor="#eeeeee"
     borderopacity="1"
     inkscape:showpageshadow="0"
     inkscape:pageopacity="0"
     inkscape:pagecheckerboard="0"
     inkscape:deskcolor="#505050">
    <inkscape:page
       x="0"
       y="0"
       width="10.408824"
       height="10.408824"
       id="page2"
       margin="0"
       bleed="0" />
  </sodipodi:namedview>
  <g
     fill-rule="evenodd"
     clip-rule="evenodd"
     id="g5"
     transform="scale(0.054)">
    <path
       fill="#ffffff"
       d="M 0,0 H 192.756 V 192.756 H 0 Z"
       id="path1" />
    <path
       d="m 58.366,113.609 c -0.061,0.842 -0.782,1.535 -1.624,1.535 h -20.33 l 21.983,-12.24 z"
       fill="#3972b7"
       id="path2" />
    <path
       d="m 56.02,117.699 0.751,2.105 0.752,-2.105 h 0.842 v 2.947 h -0.542 v -2.375 l -0.812,2.375 H 56.56 l -0.842,-2.375 v 2.375 h -0.542 v -2.947 z m -3.88,0.483 V 117.7 h 2.526 v 0.482 h -0.962 v 2.465 h -0.602 v -2.465 z m 22.916,-10.766 c 0,2.766 -3.067,4.119 -5.804,4.119 -2.045,0 -3.428,-0.842 -3.428,-2.346 0,-1.473 0.962,-1.984 2.887,-2.135 l 3.128,-0.301 c 1.083,-0.09 2.195,-0.211 3.218,-0.691 v 1.354 z m -8.751,-4.783 c 0.782,-2.285 1.985,-2.496 4.3,-2.496 3.158,0 4.271,0.662 4.271,1.986 0,1.322 -0.541,1.623 -2.225,1.744 l -5.774,0.391 c -3.309,0.211 -6.857,1.082 -6.857,5.111 0,3.85 3.007,5.354 7.337,5.354 2.437,0 5.925,-0.512 7.759,-2.375 0.03,0.602 0.181,1.172 0.391,1.773 h 5.443 c -0.391,-0.842 -0.632,-1.895 -0.632,-3.338 v -8.24 c 0,-3.068 -1.684,-5.623 -9.473,-5.623 -4.451,0 -9.142,0.602 -9.774,5.713 z m 16.36,-5.082 h 5.263 v 3.248 h 0.061 c 1.984,-2.525 3.519,-3.668 6.616,-3.668 0.601,0 1.353,0.029 1.984,0.15 v 5.082 c -0.992,-0.271 -1.984,-0.482 -3.007,-0.482 -3.699,0 -5.473,1.895 -5.473,5.082 v 7.158 h -5.443 v -16.57 z m 29.501,6.105 c -0.66,-2.166 -2.346,-2.887 -4.541,-2.887 -3.367,0 -5.293,1.834 -5.293,5.051 0,3.248 1.926,5.084 5.293,5.084 2.436,0 4.24,-1.295 4.541,-3.369 h 5.625 c -0.994,5.865 -5.203,7.188 -10.617,7.188 -6.254,0 -10.465,-2.646 -10.465,-8.902 0,-6.225 4.391,-8.9 10.916,-8.9 4.211,0 9.143,1.293 10.166,6.736 h -5.625 z m 21.022,3.76 c 0,2.766 -3.037,4.119 -5.805,4.119 -2.045,0 -3.428,-0.842 -3.428,-2.346 0,-1.473 0.963,-1.984 2.887,-2.135 L 130,106.753 c 1.082,-0.09 2.195,-0.211 3.188,-0.691 z m -8.721,-4.783 c 0.752,-2.285 1.955,-2.496 4.27,-2.496 3.158,0 4.271,0.662 4.271,1.986 0,1.322 -0.541,1.623 -2.227,1.744 l -5.773,0.391 c -3.309,0.211 -6.857,1.082 -6.857,5.111 0,3.85 3.039,5.354 7.369,5.354 2.436,0 5.895,-0.512 7.758,-2.375 0.031,0.602 0.182,1.172 0.361,1.773 h 5.443 c -0.391,-0.842 -0.631,-1.895 -0.631,-3.338 v -8.24 c 0,-3.068 -1.654,-5.623 -9.443,-5.623 -4.451,0 -9.172,0.602 -9.805,5.713 z m 21.201,3.308 c 0,-3.158 2.377,-4.812 5.113,-4.812 2.736,0 5.111,1.654 5.111,4.812 0,3.127 -2.375,4.781 -5.111,4.781 -2.736,0 -5.113,-1.654 -5.113,-4.781 z m 10.225,8.18 h 5.264 V 91.687 h -5.443 v 7.909 h -0.061 c -1.053,-1.473 -3.309,-2.465 -6.375,-2.465 -5.232,0 -9.232,3.518 -9.232,8.9 0,5.775 4.059,8.691 9.232,8.691 2.465,0 4.781,-0.541 6.555,-2.676 h 0.061 v 2.075 z m 12.419,-10.045 v -0.059 c 0,-0.422 0.902,-3.67 5.203,-3.67 3.971,0 5.113,2.768 5.113,3.67 v 0.059 z m 9.834,5.084 c -0.781,1.443 -2.314,2.164 -4.51,2.164 -3.73,0 -5.324,-2.406 -5.324,-3.969 v -0.061 h 15.939 v -0.512 c 0,-6.225 -3.459,-9.863 -10.615,-9.863 -6.557,0 -10.947,2.676 -10.947,8.9 0,6.256 4.391,8.902 10.947,8.902 4.961,0 8.75,-1.623 10.314,-5.562 h -5.804 z"
       id="path3" />
    <path
       d="m 61.163,78.334 h 3.188 v 3.038 h 0.06 c 1.474,-2.616 3.609,-3.609 5.714,-3.609 0.782,0 1.203,0.03 1.804,0.181 v 3.428 c -0.812,-0.181 -1.413,-0.301 -2.255,-0.301 -3.158,0 -5.323,1.834 -5.323,5.443 v 8.451 h -3.188 z m 13.953,9.263 c 0.271,3.428 3.308,5.263 6.135,5.263 1.804,0 4.3,-0.602 5.383,-2.947 h 3.338 c -1.563,4 -5.293,5.624 -8.571,5.624 -6.465,0 -9.624,-4.09 -9.624,-8.901 0,-4.781 3.158,-8.872 9.624,-8.872 4.391,0 9.022,2.526 9.022,9.413 v 0.421 H 75.116 Z m 11.939,-2.466 c -0.481,-3.038 -2.827,-4.722 -5.804,-4.722 -2.917,0 -5.564,1.714 -6.015,4.722 z m 4.992,-1.594 c 0.421,-4.15 3.278,-5.774 8.24,-5.774 3.398,0 7.67,0.842 7.67,4.722 v 8.961 c 0,0.963 0.451,1.414 1.412,1.414 0.361,0 0.812,-0.06 1.113,-0.12 v 2.226 c -0.752,0.12 -1.715,0.18 -2.467,0.18 -1.594,0 -2.646,-0.451 -2.855,-2.315 -1.264,1.714 -4.391,2.706 -7.068,2.706 -5.533,0 -6.766,-2.856 -6.766,-5.022 0,-3.037 1.805,-4.601 7.127,-5.172 l 3.639,-0.391 c 1.775,-0.18 2.887,-0.511 2.887,-1.985 0,-2.286 -2.225,-2.736 -4.811,-2.736 -2.738,0 -5.053,0.722 -5.143,3.308 h -2.978 z m 12.932,2.736 c -0.48,0.542 -1.354,0.751 -3.127,0.962 l -3.578,0.451 c -2.467,0.331 -3.79,0.992 -3.79,2.736 0,1.564 1.564,2.646 3.88,2.646 3.578,0 6.615,-1.925 6.615,-4.691 z m 6.076,-14.164 h 3.187 v 22.856 h -3.187 z M 56.922,77.672 H 9.978 a 1.43,1.43 0 0 0 -1.443,1.534 l -0.03,34.403 c 0.06,0.842 0.782,1.535 1.624,1.535 h 26.254 c 0.241,-0.393 4,-6.797 4.241,-7.309 0.21,-0.391 0.03,-0.992 -0.752,-1.113 H 39.48 c -14.585,0 -26.434,-5.594 -26.434,-12.72 0,-7.158 11.849,-12.962 26.434,-12.962 0.843,0 1.685,0.03 2.526,0.061 2.226,-2.466 5.955,-3.128 8.962,-1.414 a 7.128,7.128 0 0 1 3.067,3.519 34.19,34.19 0 0 1 4.331,1.744 v -5.744 a 1.43,1.43 0 0 0 -1.444,-1.534 z"
       fill="#3972b7"
       id="path4" />
    <path
       d="m 50.125,81.131 c -2.646,-1.534 -6.045,-0.602 -7.548,2.045 -1.354,2.346 -0.782,5.263 1.172,6.977 l -3.458,6.406 a 16.135,16.135 0 0 0 -4.902,-0.752 c -4.751,0 -8.842,1.955 -10.827,4.812 2.496,-1.805 5.984,-2.918 9.804,-2.918 6.104,0 12.51,3.639 14.405,7.578 -0.06,-3.037 -3.519,-6.555 -6.827,-8.09 l 3.639,-6.014 a 5.52,5.52 0 0 0 6.616,-2.466 5.56,5.56 0 0 0 -2.074,-7.578 z"
       fill="#3972b7"
       id="path5" />
  </g>
</svg>
